<svg width="1049" height="1161" viewBox="0 0 1049 1161" fill="none" xmlns="http://www.w3.org/2000/svg">
<path d="M125.899 847.2H366.899V1096.2C366.899 1131.55 338.245 1160.2 302.899 1160.2H189.899C154.553 1160.2 125.899 1131.55 125.899 1096.2V847.2Z" fill="#3183E8"/>
<path d="M608.899 836.2H849.899V1085.2C849.899 1120.55 821.245 1149.2 785.899 1149.2H672.899C637.553 1149.2 608.899 1120.55 608.899 1085.2V836.2Z" fill="#3183E8"/>
<path d="M125.899 413.2C125.899 271.815 240.514 157.2 381.899 157.2H593.899C735.284 157.2 849.899 271.815 849.899 413.2V831.2C849.899 972.585 735.284 1087.2 593.899 1087.2H381.899C240.514 1087.2 125.899 972.585 125.899 831.2V413.2Z" fill="#3183E8"/>
<path d="M423.899 416.2C423.899 433.174 430.642 449.453 442.644 461.455C454.647 473.457 470.925 480.2 487.899 480.2C504.873 480.2 521.152 473.457 533.154 461.455C545.156 449.453 551.899 433.174 551.899 416.2H423.899Z" fill="#C04736"/>
<path d="M375.719 397.407C371.145 414.477 339.759 420.9 305.617 411.752C271.475 402.603 247.506 381.349 252.08 364.278C256.654 347.207 288.04 340.784 322.182 349.932C356.324 359.081 380.293 380.336 375.719 397.407Z" fill="black"/>
<path d="M315.859 380.86C313.572 389.395 297.88 392.607 280.809 388.033C263.738 383.458 251.753 372.831 254.04 364.296C256.327 355.76 272.02 352.549 289.091 357.123C306.162 361.697 318.146 372.325 315.859 380.86Z" fill="#D9D9D9"/>
<path d="M723.718 364.278C728.292 381.349 704.323 402.604 670.181 411.752C636.039 420.9 604.654 414.478 600.08 397.407C595.506 380.336 619.475 359.081 653.617 349.933C687.759 340.784 719.144 347.207 723.718 364.278Z" fill="black"/>
<path d="M723.718 364.278C726.005 372.813 714.021 383.441 696.95 388.015C679.879 392.589 664.186 389.378 661.899 380.842C659.612 372.307 671.597 361.68 688.668 357.105C705.738 352.531 721.431 355.742 723.718 364.278Z" fill="#D9D9D9"/>
<path d="M53.5883 833.125C21.9803 850.572 -12.7732 815.818 4.67387 784.21L114.425 585.38C126.003 564.404 154.457 560.379 171.398 577.321L260.478 666.401C277.419 683.342 273.394 711.796 252.419 723.374L53.5883 833.125Z" fill="#3183E8"/>
<path d="M1042.15 830.686C1068.66 876.602 1011.52 959.221 914.523 1015.22C817.528 1071.22 717.409 1079.4 690.899 1033.48C664.389 987.563 721.528 904.944 818.523 848.944C915.517 792.945 1015.64 784.77 1042.15 830.686Z" fill="#3183E8"/>
<path d="M1019.97 1051.11C1008.53 1093.79 934.934 1111.15 855.581 1089.89C776.227 1068.63 721.169 1016.79 732.605 974.115C744.04 931.438 817.639 914.077 896.992 935.34C976.345 956.603 1031.4 1008.44 1019.97 1051.11Z" fill="#3183E8"/>
<path d="M921.268 454.975C952.876 437.528 987.629 472.281 970.182 503.889L860.431 702.72C848.853 723.695 820.399 727.72 803.458 710.779L714.378 621.699C697.437 604.758 701.462 576.304 722.437 564.726L921.268 454.975Z" fill="#3183E8"/>
<path d="M254.899 700.2C254.899 594.161 340.86 508.2 446.899 508.2H528.899C634.938 508.2 720.899 594.161 720.899 700.2V980.2C720.899 1050.89 663.591 1108.2 592.899 1108.2H382.899C312.207 1108.2 254.899 1050.89 254.899 980.2V700.2Z" fill="#D9D9D9"/>
<path d="M433.311 26.0154C443.325 -8.67176 492.473 -8.67184 502.487 26.0154L565.476 244.215C572.121 267.234 554.847 290.2 530.888 290.2H404.91C380.951 290.2 363.677 267.234 370.322 244.216L433.311 26.0154Z" fill="#3183E8"/>
<path d="M473.311 56.0154C483.325 21.3282 532.473 21.3282 542.487 56.0154L605.476 274.215C612.121 297.234 594.847 320.2 570.888 320.2H444.91C420.951 320.2 403.677 297.234 410.322 274.216L473.311 56.0154Z" fill="#3183E8"/>
<path d="M441.899 434.2L434.971 416.2H448.827L441.899 434.2Z" fill="#D9D9D9"/>
<path d="M529.899 434.2L522.971 416.2H536.827L529.899 434.2Z" fill="#D9D9D9"/>
<path d="M31.2388 733.146C37.684 727.101 47.8094 727.425 53.8547 733.87L108.247 791.861C114.292 798.306 113.968 808.432 107.523 814.477L95.853 825.423C89.4078 831.468 79.2824 831.144 73.2372 824.698L18.8447 766.708C12.7995 760.262 13.1237 750.137 19.5689 744.092L31.2388 733.146Z" fill="#D9D9D9"/>
<path d="M890.239 459.146C896.684 453.101 906.809 453.425 912.855 459.87L967.247 517.861C973.292 524.306 972.968 534.432 966.523 540.477L954.853 551.423C948.408 557.468 938.282 557.144 932.237 550.698L877.845 492.708C871.799 486.263 872.124 476.137 878.569 470.092L890.239 459.146Z" fill="#D9D9D9"/>
</svg>
